<svg xmlns="http://www.w3.org/2000/svg" width="22" height="22" viewBox="0 0 22 22">
    <path fill="#0D35FF" fill-rule="nonzero" d="M17.37 13.99a8.156 8.156 0 0 1-.806 1.45c-.425.604-.772 1.023-1.04 1.255-.414.381-.859.577-1.334.588-.342 0-.754-.097-1.234-.294-.48-.197-.923-.294-1.328-.294-.424 0-.878.097-1.365.294-.487.197-.88.3-1.18.31-.456.02-.91-.182-1.365-.604-.29-.253-.652-.686-1.086-1.3a8.99 8.99 0 0 1-1.15-2.282C5.163 12.177 5 11.27 5 10.393c0-1.006.217-1.873.652-2.6a3.826 3.826 0 0 1 1.366-1.381 3.675 3.675 0 0 1 1.847-.521c.363 0 .838.112 1.429.332.589.221.967.333 1.133.333.124 0 .544-.13 1.257-.392.673-.242 1.242-.343 1.707-.303 1.262.102 2.21.6 2.841 1.495-1.129.684-1.687 1.642-1.676 2.87.01.958.358 1.754 1.04 2.387.31.293.655.52 1.039.681-.084.242-.171.473-.265.696zM14.476 2.6c0 .75-.274 1.45-.82 2.099-.66.77-1.457 1.216-2.322 1.146a2.336 2.336 0 0 1-.017-.284c0-.72.313-1.491.87-2.121a3.35 3.35 0 0 1 1.06-.796c.428-.209.832-.324 1.213-.344.011.1.016.2.016.3z"/>
</svg>
