<svg xmlns="http://www.w3.org/2000/svg" width="199" height="19" viewBox="0 0 199 19">
    <g fill="none" fill-rule="evenodd">
        <path fill="#FFF" fill-rule="nonzero" d="M-160-10h1440v44H-160z"/>
        <text fill="#555" font-family="Raleway-Black, Raleway" font-size="20" font-weight="700" letter-spacing="-.5" transform="translate(-160 -10)">
            <tspan x="187" y="29">DISPLAY CRACKER</tspan>
        </text>
        <g fill="#555">
            <path fill-rule="nonzero" d="M8 3h7V2h1v3h-1V4H8v1H7V2h1zM3 18V8H2V7h3v1H4v10h1v1H2v-1zM8 8v10h7V8H8zm0-1h7a1 1 0 0 1 1 1v10a1 1 0 0 1-1 1H8a1 1 0 0 1-1-1V8a1 1 0 0 1 1-1z"/>
            <text font-family="Raleway-Bold, Raleway" font-size="2" font-weight="bold">
                <tspan x="10" y="2">375</tspan>
            </text>
            <text font-family="Raleway-Bold, Raleway" font-size="2" font-weight="bold" transform="rotate(90 1.5 13.738)">
                <tspan x="-.5" y="14.738">812</tspan>
            </text>
        </g>
    </g>
</svg>
