<svg xmlns="http://www.w3.org/2000/svg" width="22" height="22" viewBox="0 0 22 22">
    <path fill="#555" fill-rule="evenodd" d="M8.547 3.798A3.983 3.983 0 0 1 11 2.958c.955 0 1.833.335 2.52.894l.894-.894.707.707-.909.91c.495.665.788 1.49.788 2.383H7c0-.924.314-1.775.84-2.452L7 3.666l.707-.708.84.84zM10 15.958v3a1 1 0 1 1-2 0v-3a1 1 0 0 1-1-1v-7h8v7a1 1 0 0 1-1 1v3a1 1 0 1 1-2 0v-3h-2zm-.5-10a.5.5 0 1 0 0-1 .5.5 0 0 0 0 1zm3 0a.5.5 0 1 0 0-1 .5.5 0 0 0 0 1zm-7.5 2a1 1 0 0 1 1 1v5a1 1 0 1 1-2 0v-5a1 1 0 0 1 1-1zm12 0a1 1 0 0 1 1 1v5a1 1 0 1 1-2 0v-5a1 1 0 0 1 1-1z"/>
</svg>
