<svg xmlns="http://www.w3.org/2000/svg" width="22" height="22" viewBox="0 0 22 22">
    <path fill="#FFF" fill-rule="nonzero" d="M11 3a8.002 8.002 0 0 1 2.531 15.594c-.406.073-.552-.177-.552-.386 0-.26.01-1.125.01-2.198 0-.75-.25-1.229-.541-1.479 1.781-.198 3.656-.875 3.656-3.948 0-.875-.312-1.583-.823-2.146.084-.208.354-1.02-.083-2.124-.667-.209-2.198.822-2.198.822a7.532 7.532 0 0 0-4 0s-1.531-1.03-2.198-.822c-.437 1.104-.167 1.916-.083 2.125a3.099 3.099 0 0 0-.823 2.145c0 3.063 1.864 3.75 3.646 3.948-.23.209-.438.563-.51 1.073-.46.209-1.626.563-2.324-.666-.437-.76-1.229-.823-1.229-.823-.781-.01-.052.49-.052.49.52.239.886 1.166.886 1.166.468 1.427 2.697.948 2.697.948 0 .666.01 1.291.01 1.49 0 .208-.145.458-.551.385A8.002 8.002 0 0 1 11 3zM6.031 14.49c-.02.041-.083.052-.135.02-.063-.03-.094-.083-.073-.125.02-.03.073-.041.135-.02.063.03.094.083.073.125zm.323.354c-.042.041-.114.02-.167-.031-.052-.063-.062-.136-.02-.167.041-.042.114-.021.166.031.052.063.063.136.021.167zm.313.469c-.042.03-.125 0-.177-.073-.053-.073-.053-.157 0-.188.052-.042.135-.01.177.063.052.072.052.156 0 .197zm.437.437c-.042.052-.135.042-.208-.031-.073-.063-.094-.156-.042-.198.042-.052.136-.042.208.031.063.063.084.156.042.198zm.594.26c-.02.063-.115.094-.198.063-.094-.02-.156-.094-.135-.156.02-.063.114-.094.197-.073.094.031.157.104.136.166zm.656.052c0 .063-.073.115-.166.115-.105.01-.178-.042-.178-.114 0-.063.073-.115.167-.115.094-.01.177.042.177.114zm.604-.104c.01.063-.052.125-.146.146-.093.021-.177-.02-.187-.083-.01-.073.052-.136.146-.156.094-.01.177.03.187.093z"/>
</svg>
