<svg xmlns="http://www.w3.org/2000/svg" width="16" height="19" viewBox="0 0 16 19">
    <g fill="none" fill-rule="evenodd">
        <path fill-rule="nonzero" stroke="#333" d="M7.5 4.5V5l.5-.5H7l.5.5v-.5zm0-2V2l-.5.5h1L7.5 2v.5zm8 0V2l-.5.5h1l-.5-.5v.5zm0 2V5l.5-.5h-1l.5.5v-.5zM4.5 18.5H5l-.5-.5v1l.5-.5h-.5zm-2 0H2l.5.5v-1l-.5.5h.5zM2 7.5l.5.5V7l-.5.5zm1.75 0h.75-.75zm.75 0H5L4.5 7v1l.5-.5h-.5z"/>
        <rect width="8" height="11" x="7.5" y="7.5" fill-rule="nonzero" stroke="#333" rx="1"/>
        <text fill="#333" font-family="Raleway-Bold, Raleway" font-size="2" font-weight="bold">
            <tspan x="10" y="2">375</tspan>
        </text>
        <text fill="#333" font-family="Raleway-Bold, Raleway" font-size="2" font-weight="bold" transform="rotate(90 1.5 13.738)">
            <tspan x="-.5" y="14.738">812</tspan>
        </text>
    </g>
</svg>
